HIERARCHY
ROOT hips
{
  OFFSET 0 10.6860622 2.3727825e-15
  CHANNELS 6 Xposition Yposition Zposition Yrotation Xrotation Zrotation
  JOINT leftUpperLeg
  {
    OFFSET 0.6642549969 -0.9402397400000004 0
    CHANNELS 3 Yrotation Xrotation Zrotation
    JOINT leftLowerLeg
    {
      OFFSET 0 -3.997221335632195 0
      CHANNELS 3 Yrotation Xrotation Zrotation
      JOINT leftFoot
      {
        OFFSET -0.13777839790000004 -4.6145792000000005 -0.22186036399999998
        CHANNELS 3 Yrotation Xrotation Zrotation
        JOINT leftToes
        {
          OFFSET -0.03777410834999995 -0.9130806927000008 0.85230013
          CHANNELS 3 Yrotation Xrotation Zrotation
          End Site
          {
            OFFSET -0.03777410834999995 -0.9130806927000008 0.85230013
          }
        }
      }
    }
  }
  JOINT rightUpperLeg
  {
    OFFSET -0.6642778626 -0.9402397400000004 0
    CHANNELS 3 Yrotation Xrotation Zrotation
    JOINT rightLowerLeg
    {
      OFFSET 0 -3.997221452859387 0
      CHANNELS 3 Yrotation Xrotation Zrotation
      JOINT rightFoot
      {
        OFFSET 0.1377926176 -4.6145792000000005 -0.22185782299999995
        CHANNELS 3 Yrotation Xrotation Zrotation
        JOINT rightToes
        {
          OFFSET 0.037780746850000047 -0.9130806927000008 0.85230167
          CHANNELS 3 Yrotation Xrotation Zrotation
          End Site
          {
            OFFSET 0.037780746850000047 -0.9130806927000008 0.85230167
          }
        }
      }
    }
  }
  JOINT spine
  {
    OFFSET 0 0.13988381660000015 0
    CHANNELS 3 Yrotation Xrotation Zrotation
    JOINT chest
    {
      OFFSET 0 0.6191039003973773 0
      CHANNELS 3 Yrotation Xrotation Zrotation
      JOINT upperChest
      {
        OFFSET 0 0.9855186130586943 0
        CHANNELS 3 Yrotation Xrotation Zrotation
        JOINT leftShoulder
        {
          OFFSET 0.1807663869 1.5087829790000005 0
          CHANNELS 3 Yrotation Xrotation Zrotation
          JOINT leftUpperArm
          {
            OFFSET 0.5985063006419806 0 0
            CHANNELS 3 Yrotation Xrotation Zrotation
            JOINT leftLowerArm
            {
              OFFSET 2.2993332369501065 0 0
              CHANNELS 3 Yrotation Xrotation Zrotation
              JOINT leftHand
              {
                OFFSET 2.395047042602395 0 0
                CHANNELS 3 Yrotation Xrotation Zrotation
                JOINT leftIndexProximal
                {
                  OFFSET 0.5766295810000004 0.04556643899499946 0.17265095988184
                  CHANNELS 3 Yrotation Xrotation Zrotation
                  JOINT leftIndexIntermediate
                  {
                    OFFSET 0.2957229000000008 -0.019352197700001517 -0.007932640616999987
                    CHANNELS 3 Yrotation Xrotation Zrotation
                    JOINT leftIndexDistal
                    {
                      OFFSET 0.19008243099999922 -0.012484908149998475 -0.002786250786000012
                      CHANNELS 3 Yrotation Xrotation Zrotation
                      End Site
                      {
                        OFFSET 0.19008243099999922 -0.012484908149998475 -0.002786250786000012
                      }
                    }
                  }
                }
                JOINT leftMiddleProximal
                {
                  OFFSET 0.5834975091000001 0.0524350405149987 0.02204081888183999
                  CHANNELS 3 Yrotation Xrotation Zrotation
                  JOINT leftMiddleIntermediate
                  {
                    OFFSET 0.33880573540000003 -0.019871473270000717 -0.00000971183179999946
                    CHANNELS 3 Yrotation Xrotation Zrotation
                    JOINT leftMiddleDistal
                    {
                      OFFSET 0.20676022730000088 -0.012221336379999448 0.0001471936708000235
                      CHANNELS 3 Yrotation Xrotation Zrotation
                      End Site
                      {
                        OFFSET 0.20676022730000088 -0.012221336379999448 0.0001471936708000235
                      }
                    }
                  }
                }
                JOINT leftLittleProximal
                {
                  OFFSET 0.5344154683999995 -0.012880921405001189 -0.24414037221816004
                  CHANNELS 3 Yrotation Xrotation Zrotation
                  JOINT leftLittleIntermediate
                  {
                    OFFSET 0.21758961730000093 -0.011650919939999227 0.011893592810000034
                    CHANNELS 3 Yrotation Xrotation Zrotation
                    JOINT leftLittleDistal
                    {
                      OFFSET 0.1475273964999999 -0.008152365682999818 0.006001092492999946
                      CHANNELS 3 Yrotation Xrotation Zrotation
                      End Site
                      {
                        OFFSET 0.1475273964999999 -0.008152365682999818 0.006001092492999946
                      }
                    }
                  }
                }
                JOINT leftRingProximal
                {
                  OFFSET 0.5799399463000003 0.026911854694997794 -0.12150566991816003
                  CHANNELS 3 Yrotation Xrotation Zrotation
                  JOINT leftRingIntermediate
                  {
                    OFFSET 0.26167887460000006 -0.013480186499999602 0.010996293000000053
                    CHANNELS 3 Yrotation Xrotation Zrotation
                    JOINT leftRingDistal
                    {
                      OFFSET 0.17667108799999987 -0.008990287899999228 0.0055541023999999065
                      CHANNELS 3 Yrotation Xrotation Zrotation
                      End Site
                      {
                        OFFSET 0.17667108799999987 -0.008990287899999228 0.0055541023999999065
                      }
                    }
                  }
                }
                JOINT leftThumbProximal
                {
                  OFFSET 0.11018806699999972 -0.09448718900500053 0.17047963138184
                  CHANNELS 3 Yrotation Xrotation Zrotation
                  JOINT leftThumbIntermediate
                  {
                    OFFSET 0.31062601459999983 -0.08126270900000132 0.15443142000000007
                    CHANNELS 3 Yrotation Xrotation Zrotation
                    JOINT leftThumbDistal
                    {
                      OFFSET 0.21627175790000086 -0.08833193599999878 0.018771167799999988
                      CHANNELS 3 Yrotation Xrotation Zrotation
                      End Site
                      {
                        OFFSET 0.21627175790000086 -0.08833193599999878 0.018771167799999988
                      }
                    }
                  }
                }
              }
            }
          }
        }
        JOINT neck
        {
          OFFSET 0 1.5463305265074576 0
          CHANNELS 3 Yrotation Xrotation Zrotation
          JOINT head
          {
            OFFSET 0 0.8456443600000344 0
            CHANNELS 3 Yrotation Xrotation Zrotation
            JOINT leftEye
            {
              OFFSET 0.30408573140000006 0.5104519199999995 0.1276382305
              CHANNELS 3 Yrotation Xrotation Zrotation
              End Site
              {
                OFFSET 0.30408573140000006 0.5104519199999995 0.1276382305
              }
            }
            JOINT rightEye
            {
              OFFSET -0.30409491089999996 0.5104519199999995 0.1276379445
              CHANNELS 3 Yrotation Xrotation Zrotation
              End Site
              {
                OFFSET -0.30409491089999996 0.5104519199999995 0.1276379445
              }
            }
            JOINT jaw
            {
              OFFSET -3.155239131000001e-7 -0.11984121820000082 0.60178107
              CHANNELS 3 Yrotation Xrotation Zrotation
              End Site
              {
                OFFSET -3.155239131000001e-7 -0.11984121820000082 0.60178107
              }
            }
          }
        }
        JOINT rightShoulder
        {
          OFFSET -0.1807303465 1.5087829790000005 0
          CHANNELS 3 Yrotation Xrotation Zrotation
          JOINT rightUpperArm
          {
            OFFSET -0.5985063796536958 0 0
            CHANNELS 3 Yrotation Xrotation Zrotation
            JOINT rightLowerArm
            {
              OFFSET -2.2993322059002854 0 0
              CHANNELS 3 Yrotation Xrotation Zrotation
              JOINT rightHand
              {
                OFFSET -2.395045314457259 0 0
                CHANNELS 3 Yrotation Xrotation Zrotation
                JOINT rightIndexProximal
                {
                  OFFSET -0.5764487688300002 0.0441371204405987 0.17361932004999997
                  CHANNELS 3 Yrotation Xrotation Zrotation
                  JOINT rightIndexIntermediate
                  {
                    OFFSET -0.29573011380000047 -0.01934826376999843 -0.007698921482999974
                    CHANNELS 3 Yrotation Xrotation Zrotation
                    JOINT rightIndexDistal
                    {
                      OFFSET -0.19008373999999884 -0.012503266380000655 -0.0026365778999999897
                      CHANNELS 3 Yrotation Xrotation Zrotation
                      End Site
                      {
                        OFFSET -0.19008373999999884 -0.012503266380000655 -0.0026365778999999897
                      }
                    }
                  }
                }
                JOINT rightMiddleProximal
                {
                  OFFSET -0.5834852037300005 0.05211639405060153 0.02307162440000001
                  CHANNELS 3 Yrotation Xrotation Zrotation
                  JOINT rightMiddleIntermediate
                  {
                    OFFSET -0.33880114510000003 -0.019952774050000954 0.0002455003561999819
                    CHANNELS 3 Yrotation Xrotation Zrotation
                    JOINT rightMiddleDistal
                    {
                      OFFSET -0.20675694929999955 -0.012273788999999091 0.00030209124000002766
                      CHANNELS 3 Yrotation Xrotation Zrotation
                      End Site
                      {
                        OFFSET -0.20675694929999955 -0.012273788999999091 0.00030209124000002766
                      }
                    }
                  }
                }
                JOINT rightLittleProximal
                {
                  OFFSET -0.5346811737299992 -0.011214256288399227 -0.24363941305000003
                  CHANNELS 3 Yrotation Xrotation Zrotation
                  JOINT rightLittleIntermediate
                  {
                    OFFSET -0.21757715980000092 -0.011771559690000988 0.01201554387
                    CHANNELS 3 Yrotation Xrotation Zrotation
                    JOINT rightLittleDistal
                    {
                      OFFSET -0.1475201849000004 -0.00822055339600003 0.006082065407000015
                      CHANNELS 3 Yrotation Xrotation Zrotation
                      End Site
                      {
                        OFFSET -0.1475201849000004 -0.00822055339600003 0.006082065407000015
                      }
                    }
                  }
                }
                JOINT rightRingProximal
                {
                  OFFSET -0.5800810755299999 0.027657985680600072 -0.12066365025000003
                  CHANNELS 3 Yrotation Xrotation Zrotation
                  JOINT rightRingIntermediate
                  {
                    OFFSET -0.26166445029999974 -0.013623118409999302 0.011164098990000045
                    CHANNELS 3 Yrotation Xrotation Zrotation
                    JOINT rightRingDistal
                    {
                      OFFSET -0.17666387530000027 -0.009072900100000503 0.005668185599999959
                      CHANNELS 3 Yrotation Xrotation Zrotation
                      End Site
                      {
                        OFFSET -0.17666387530000027 -0.009072900100000503 0.005668185599999959
                      }
                    }
                  }
                }
                JOINT rightThumbProximal
                {
                  OFFSET -0.10997596379000074 -0.09577489355940072 0.16989765924999997
                  CHANNELS 3 Yrotation Xrotation Zrotation
                  JOINT rightThumbIntermediate
                  {
                    OFFSET -0.31036620999999986 -0.08229339117999834 0.15440884469999996
                    CHANNELS 3 Yrotation Xrotation Zrotation
                    JOINT rightThumbDistal
                    {
                      OFFSET -0.21631306399999906 -0.08825326400000111 0.018656797720000014
                      CHANNELS 3 Yrotation Xrotation Zrotation
                      End Site
                      {
                        OFFSET -0.21631306399999906 -0.08825326400000111 0.018656797720000014
                      }
                    }
                  }
                }
              }
            }
          }
        }
      }
    }
  }
}
MOTION
Frames: 5
Frame Time: 0.03333333333333333
0.1072202968563359 -7.7414672198885945 0.5268357778993799 -168.00249954612391 89.41750915856946 11.889466095749778 -1.9206757262073018 -85.02582486970579 63.312067130783795 8.63043686912055 81.76412334561138 1.4228453075590066 -15.18253059892519 55.98671654811222 2.641092902042583 0 0 0 1.8893281234294044 -85.04259242223027 -63.29355228475006 -8.664492057389927 81.76347968186344 -1.457077772441583 15.163675278182302 55.99171693760072 -2.6699051493760813 0 0 0 -1.264723058475997 -27.27891597380806 -0.13232061518008154 -2.265143760555217 -3.105602389008191 -0.6045230721153355 0 0 0 21.80048608603263 35.99975035620836 16.03502725992607 -35.04008402009225 34.51068456194826 41.08428506606313 -59.181427530449795 14.46397208302902 41.04979699265011 25.44713183970221 -49.093746906392624 71.0846896166852 0 0 0 0 0 0 0 0 0 0 0 0 0 0 0 0 0 0 0 0 0 0 0 0 0 0 0 0 0 0 0 0 0 0 0 0 0 0 0 0 0 0 0 0 0 -20.93862529291383 2.4975404713975977 -6.311188085440974 -15.71814588968469 -22.014315003613707 -8.453255639838023 0 0 0 0 0 0 0 0 0 -12.30070720660325 17.548667619920845 42.410128170470834 49.3449433644472 42.2764132287085 -14.835188467566429 58.36551417736486 11.051447874082891 -35.38671616660344 0.778982009167191 9.235368478067318 -58.87227398843256 0 0 0 0 0 0 0 0 0 0 0 0 0 0 0 0 0 0 0 0 0 0 0 0 0 0 0 0 0 0 0 0 0 0 0 0 0 0 0 0 0 0 0 0 0
0.1072202968563359 -7.732316922182957 0.5304636362306241 -19.072344903289125 89.6153866119207 160.81418976826936 -5.9268291217379625 -85.67423442968153 66.80977022442927 8.63043686912055 81.76412334561138 1.4228453075590066 -15.15176108579107 55.99183294942882 2.0597047228557352 0 0 0 5.905848022940801 -85.69042847709784 -66.80119018410961 -8.664492057389927 81.76347968186344 -1.457077772441583 15.133489441547344 55.99663858737778 -2.0874052299993435 0 0 0 -1.2764998201986524 -28.28879977529047 -0.10695455041074786 -2.266754000870887 -3.8085063901265923 -0.576654683100855 0 0 0 21.449163826987608 36.609084659482114 16.18362774807947 -35.02987310441208 34.55093254495635 40.91726867642186 -58.79055605809192 14.137237155753676 40.76062018143369 25.44713183970221 -49.093746906392624 71.0846896166852 0 0 0 0 0 0 0 0 0 0 0 0 0 0 0 0 0 0 0 0 0 0 0 0 0 0 0 0 0 0 0 0 0 0 0 0 0 0 0 0 0 0 0 0 0 -20.93572540519178 2.318028829193811 -6.242462374364894 -15.756893022682604 -22.35165825724453 -8.350635113212752 0 0 0 0 0 0 0 0 0 -11.995116839996987 17.773272611891922 42.546550425095376 49.272021999636756 42.278771827048324 -14.727413292749839 58.006214397646545 10.801635644371187 -35.18153992721103 1.060787214713254 9.367498374152442 -58.64185801946008 0 0 0 0 0 0 0 0 0 0 0 0 0 0 0 0 0 0 0 0 0 0 0 0 0 0 0 0 0 0 0 0 0 0 0 0 0 0 0 0 0 0 0 0 0
0.1072202968563359 -7.723167161261861 0.534091226169597 -5.729493738045759 88.69718800215702 174.15160921080223 -11.221744545181275 -86.29757292438984 71.59668526651578 8.63043686912055 81.76412334561138 1.4228453075590066 -15.121085193458718 55.99713322951634 1.4783055352977126 0 0 0 11.218640584261301 -86.31299483971482 -71.60549272708826 -8.664492057389927 81.76347968186344 -1.457077772441583 15.103396015896038 56.001737979858 -1.5049015884089734 0 0 0 -1.2888987573663853 -29.29835682687563 -0.08111290025455037 -2.2687083956228746 -4.511299366030667 -0.5487459076029036 0 0 0 21.09706746327654 37.21903041379085 16.328698652930072 -35.01979710814243 34.591195857191344 40.7501794583737 -58.398563302317 13.812460219524334 40.4695845504882 25.44713183970221 -49.093746906392624 71.0846896166852 0 0 0 0 0 0 0 0 0 0 0 0 0 0 0 0 0 0 0 0 0 0 0 0 0 0 0 0 0 0 0 0 0 0 0 0 0 0 0 0 0 0 0 0 0 -20.93305074799018 2.1384816400116993 -6.1737441715642545 -15.796409711197546 -22.68912430325891 -8.247457055434614 0 0 0 0 0 0 0 0 0 -11.688591585008833 17.99717631908927 42.68440681156318 49.19908564966782 42.281222831970474 -14.619641201994257 57.64635375107012 10.553109679932367 -34.97496221151438 1.343223967864735 9.498503877735814 -58.41070735804756 0 0 0 0 0 0 0 0 0 0 0 0 0 0 0 0 0 0 0 0 0 0 0 0 0 0 0 0 0 0 0 0 0 0 0 0 0 0 0 0 0 0 0 0 0
0.1072202968563359 -7.714016863556224 0.5377190845008413 -3.4507998387464833 87.76708168967133 176.4248746452765 -18.46975266029515 -86.88071056963453 78.33709053002084 8.63043686912055 81.76412334561138 1.4228453075590066 -15.09050499931311 56.00259914128411 0.8969325785151785 0 0 0 18.49833820553714 -86.89530504238157 -78.37717501589879 -8.664492057389927 81.76347968186344 -1.457077772441583 15.073397443647307 56.007009077159736 -0.922421007485796 0 0 0 -1.3019457293805627 -30.307440738647774 -0.054767291942837866 -2.2710078569713232 -5.213935599037604 -0.5207899553301713 0 0 0 20.744121480097064 37.82950381208618 16.470169517281246 -35.00985315198378 34.631499443565545 40.58302318547678 -58.00550530239754 13.489690196714522 40.17673306351604 25.44713183970221 -49.093746906392624 71.0846896166852 0 0 0 0 0 0 0 0 0 0 0 0 0 0 0 0 0 0 0 0 0 0 0 0 0 0 0 0 0 0 0 0 0 0 0 0 0 0 0 0 0 0 0 0 0 -20.930586798538943 1.9589020660707122 -6.1050297176502974 -15.836709980779071 -23.026710952028257 -8.143712404561388 0 0 0 0 0 0 0 0 0 -11.381127482253962 18.220354341655995 42.8236958414836 49.126158158734874 42.28377548647319 -14.511868019988917 57.285908150871975 10.305899472515211 -34.7669964930309 1.6262877181363375 9.628377464276202 -58.17883624643862 0 0 0 0 0 0 0 0 0 0 0 0 0 0 0 0 0 0 0 0 0 0 0 0 0 0 0 0 0 0 0 0 0 0 0 0 0 0 0 0 0 0 0 0 0
0.1072202968563359 -7.704866834242857 0.5413469428320855 -2.511856687909659 86.83596930265362 177.35839092821496 -28.689456622327846 -87.39676277956914 88.04969300640624 8.63043686912055 81.76412334561138 1.4228453075590066 -15.060036811797058 56.00824297204868 0.3156072645890655 0 0 0 28.773239538233973 -87.41018118848423 -88.14452443315919 -8.664492057389927 81.76347968186344 -1.457077772441583 15.043497328679736 56.01244584045861 -0.33999672664021113 0 0 0 -1.3156648609144472 -31.315895160886306 -0.027891783624034668 -2.273653609720912 -5.916358220631472 -0.4927815751645587 0 0 0 20.390271713961113 38.44045733873565 16.607983105013584 -35.000050922406764 34.67182677283286 40.41580733899377 -57.611370778904345 13.168960376381097 39.882071994658084 25.44713183970221 -49.093746906392624 71.0846896166852 0 0 0 0 0 0 0 0 0 0 0 0 0 0 0 0 0 0 0 0 0 0 0 0 0 0 0 0 0 0 0 0 0 0 0 0 0 0 0 0 0 0 0 0 0 -20.92834298730079 1.7792910237611814 -6.036319746607504 -15.877795848790926 -23.364406688453357 -8.039391778864088 0 0 0 0 0 0 0 0 0 -11.07272395232261 18.44280189388248 42.96439528016941 49.05324964992083 42.286452884420186 -14.404095239459847 56.92487863412856 10.060017237465123 -34.55764271108806 1.9099697851306392 9.757103776766911 -57.94622814421195 0 0 0 0 0 0 0 0 0 0 0 0 0 0 0 0 0 0 0 0 0 0 0 0 0 0 0 0 0 0 0 0 0 0 0 0 0 0 0 0 0 0 0 0 0
